<svg xmlns="http://www.w3.org/2000/svg" width="64" height="64.001" viewBox="0 0 64 64.001">
  <g id="image" transform="translate(-491 -324)">
    <path id="Subtraction_4" data-name="Subtraction 4" d="M443,356H379V292h64v64Zm-53-48a3,3,0,0,0-3,3v26a3,3,0,0,0,3,3h42a3,3,0,0,0,3-3V311a3,3,0,0,0-3-3Z" transform="translate(112 32)" fill="#d9d9d9"/>
    <path id="Subtraction_2" data-name="Subtraction 2" d="M-66.459,23.323V0h42V18.322l-12.5-12.5-13,13-6-6-10.5,10.5ZM-56.458,2a4.005,4.005,0,0,0-4,4,4,4,0,0,0,4,4,4,4,0,0,0,4-4A4,4,0,0,0-56.458,2Z" transform="translate(568.458 343)" fill="#d9d9d9"/>
  </g>
</svg>
